<svg width="229" height="44" viewBox="0 0 229 44" fill="none" xmlns="http://www.w3.org/2000/svg">
<path d="M20.332 0.164062C23.1445 0.164062 25.4688 1.23828 27.3047 3.38672C29.1406 5.53516 30.0586 8.62109 30.0586 12.6445C30.0586 15.1445 29.4141 17.2148 28.125 18.8555C26.875 20.4961 25.0391 21.5312 22.6172 21.9609H22.6758C24.7461 21.9609 26.6992 23.4453 28.5352 26.4141C30.4102 29.3828 31.3477 32.3906 31.3477 35.4375C31.3477 38.4453 30.3516 40.5352 28.3594 41.707C27.5781 42.1758 26.7969 42.4102 26.0156 42.4102C23.6719 42.4102 21.4648 40.8086 19.3945 37.6055C17.3633 34.4023 16.25 31.2578 16.0547 28.1719C15.8984 30.2812 15.6836 32.0781 15.4102 33.5625C15.1758 35.0078 14.7852 36.4727 14.2383 37.957C13.6914 39.4414 12.9102 40.5742 11.8945 41.3555C10.8789 42.0977 9.64844 42.4688 8.20312 42.4688H7.67578C5.17578 42.3125 3.35938 40.418 2.22656 36.7852C1.13281 33.1523 0.585938 28.6602 0.585938 23.3086C0.585938 22.1367 0.605469 21.2383 0.644531 20.6133C1.03516 7.68359 3.61328 1.00391 8.37891 0.574219H8.84766C9.19922 0.574219 9.53125 0.613281 9.84375 0.691406C10.1562 0.730469 10.4883 0.847656 10.8398 1.04297C11.1914 1.23828 11.4258 1.39453 11.543 1.51172C11.6992 1.58984 11.9727 1.80469 12.3633 2.15625C12.793 2.46875 13.0469 2.64453 13.125 2.68359C13.9062 1.98047 15 1.39453 16.4062 0.925781C17.8125 0.417969 19.1211 0.164062 20.332 0.164062ZM20.2734 9.53906C19.6094 8.875 18.8086 8.54297 17.8711 8.54297C16.9336 8.54297 16.1328 8.875 15.4688 9.53906C14.8047 10.2031 14.4727 11.0234 14.4727 12C14.4727 12.9375 14.8047 13.7383 15.4688 14.4023C16.1328 15.0664 16.9336 15.3984 17.8711 15.3984C18.8086 15.3984 19.6094 15.0664 20.2734 14.4023C20.9766 13.7383 21.3281 12.9375 21.3281 12C21.3281 11.0234 20.9766 10.2031 20.2734 9.53906ZM50.6836 28.582C51.3867 26.8242 51.7383 24.7344 51.7383 22.3125C51.7383 19.8906 51.3867 17.8203 50.6836 16.1016C50.0195 14.3438 49.2188 13.4648 48.2812 13.4648C47.3438 13.4648 46.543 14.3438 45.8789 16.1016C45.2148 17.8203 44.8828 19.8906 44.8828 22.3125C44.8828 24.7344 45.2148 26.8242 45.8789 28.582C46.543 30.3008 47.3438 31.1602 48.2812 31.1602C49.2188 31.1602 50.0195 30.3008 50.6836 28.582ZM47.1094 0.164062H47.2266C50.7422 0.164062 53.6914 1.16016 56.0742 3.15234C58.4961 5.14453 60.2344 7.72266 61.2891 10.8867C62.3438 14.0117 62.8711 17.5859 62.8711 21.6094C62.8711 25.7109 62.3242 29.3438 61.2305 32.5078C60.1758 35.6328 58.4375 38.1914 56.0156 40.1836C53.5938 42.1367 50.625 43.1133 47.1094 43.1133C43.5938 43.1133 40.625 42.1367 38.2031 40.1836C35.7812 38.1914 34.0234 35.6328 32.9297 32.5078C31.875 29.3438 31.3477 25.7109 31.3477 21.6094C31.3477 15.2812 32.6562 10.1445 35.2734 6.19922C37.8906 2.21484 41.8359 0.203125 47.1094 0.164062ZM82.2656 14.5195C81.6016 13.8555 80.8008 13.5234 79.8633 13.5234C78.9258 13.5234 78.125 13.8555 77.4609 14.5195C76.7969 15.1836 76.4648 16.0039 76.4648 16.9805C76.4648 17.918 76.7969 18.7188 77.4609 19.3828C78.125 20.0469 78.9258 20.3789 79.8633 20.3789C80.8008 20.3789 81.6016 20.0469 82.2656 19.3828C82.9688 18.7188 83.3203 17.918 83.3203 16.9805C83.3203 16.0039 82.9688 15.1836 82.2656 14.5195ZM80.0977 0.574219C85.0195 0.574219 88.8477 2.64453 91.582 6.78516C94.3164 10.8867 95.8008 15.9258 96.0352 21.9023V23.8359C96.0352 25.9062 95.8984 27.8789 95.625 29.7539C95.3906 31.5898 94.9414 33.543 94.2773 35.6133C93.6133 37.6836 92.5391 39.3438 91.0547 40.5938C89.6094 41.8438 87.8125 42.4688 85.6641 42.4688C84.1797 42.4688 82.9688 41.8828 82.0312 40.7109C81.1328 39.5391 80.6445 38.0547 80.5664 36.2578C80.4883 35.75 80.4492 35.0273 80.4492 34.0898C80.4492 31.707 80.8984 29.6758 81.7969 27.9961C81.2109 28.4648 80.6445 28.6992 80.0977 28.6992C79.5117 28.6992 78.8867 28.4258 78.2227 27.8789C79.2383 28.8945 79.7461 31.0625 79.7461 34.3828C79.7461 35.2031 79.7266 35.8477 79.6875 36.3164C79.6094 37.8789 79.1211 39.3047 78.2227 40.5938C77.3242 41.8438 76.2305 42.4883 74.9414 42.5273H74.8828C72.7734 42.5273 70.957 41.9023 69.4336 40.6523C67.9102 39.4023 66.7773 37.7617 66.0352 35.7305C65.332 33.6992 64.8242 31.7266 64.5117 29.8125C64.1992 27.8594 64.043 25.8672 64.043 23.8359C64.043 23.0547 64.082 22.1562 64.1602 21.1406C64.3555 18.5234 64.7656 16.082 65.3906 13.8164C66.0156 11.5117 66.9141 9.34375 68.0859 7.3125C69.2578 5.24219 70.8789 3.60156 72.9492 2.39062C75.0195 1.17969 77.4023 0.574219 80.0977 0.574219ZM115.312 0.164062H115.547C118.125 0.242188 120.41 1.35547 122.402 3.50391C124.434 5.61328 125.918 8.07422 126.855 10.8867C127.793 13.6602 128.281 16.3945 128.32 19.0898V20.1445C128.32 22.0195 128.242 23.8555 128.086 25.6523C127.969 27.4102 127.656 29.4023 127.148 31.6289C126.68 33.8555 126.055 35.7695 125.273 37.3711C124.531 38.9727 123.457 40.3398 122.051 41.4727C120.645 42.5664 119.004 43.1133 117.129 43.1133C117.09 43.1133 117.051 43.0938 117.012 43.0547C114.16 43.0547 111.953 41.8242 110.391 39.3633C108.945 41.4727 107.305 42.5273 105.469 42.5273C105.43 42.5273 105.41 42.5078 105.41 42.4688C100.098 42.4297 97.3633 35.125 97.207 20.5547V19.9688C97.207 17.8984 97.3047 15.9062 97.5 13.9922C97.6953 12.0391 98.0469 9.96875 98.5547 7.78125C99.0625 5.59375 99.8633 3.83594 100.957 2.50781C102.09 1.17969 103.477 0.515625 105.117 0.515625C105.938 0.515625 106.777 0.710938 107.637 1.10156C108.496 1.45312 109.141 1.90234 109.57 2.44922C109.727 2.37109 110.098 2.15625 110.684 1.80469C111.27 1.41406 111.738 1.14062 112.09 0.984375C112.441 0.789062 112.91 0.613281 113.496 0.457031C114.121 0.261719 114.727 0.164062 115.312 0.164062ZM117.363 16.3359C116.699 14.9688 115.898 14.2852 114.961 14.2852C114.023 14.2852 113.223 14.9688 112.559 16.3359C111.895 17.6641 111.562 19.2852 111.562 21.1992C111.562 23.1133 111.895 24.7539 112.559 26.1211C113.223 27.4492 114.023 28.1133 114.961 28.1133C115.898 28.1133 116.699 27.4492 117.363 26.1211C118.066 24.7539 118.418 23.1133 118.418 21.1992C118.418 19.2852 118.066 17.6641 117.363 16.3359ZM146.25 10.1836C146.68 7.09766 147.344 4.73438 148.242 3.09375C149.141 1.41406 150.586 0.574219 152.578 0.574219C154.062 0.574219 155.371 0.808594 156.504 1.27734C157.637 1.74609 158.555 2.46875 159.258 3.44531C160 4.42187 160.605 5.45703 161.074 6.55078C161.582 7.64453 161.973 9.03125 162.246 10.7109C162.52 12.3906 162.715 13.9336 162.832 15.3398C162.988 16.7461 163.105 18.4844 163.184 20.5547C163.184 20.75 163.184 21.082 163.184 21.5508C163.223 21.9805 163.242 22.3125 163.242 22.5469C163.242 24.6562 163.086 26.7266 162.773 28.7578C162.5 30.75 161.992 32.8594 161.25 35.0859C160.547 37.2734 159.414 39.0508 157.852 40.418C156.289 41.7852 154.395 42.4688 152.168 42.4688C150.605 42.4688 149.336 41.8828 148.359 40.7109C147.383 39.5391 146.855 38.0547 146.777 36.2578V35.2031C146.777 30.7109 147.656 26.0234 149.414 21.1406C148.086 23.3672 147.031 24.4805 146.25 24.4805C145.781 24.4805 145.312 24.2266 144.844 23.7188C144.414 23.1719 143.867 22.293 143.203 21.082C144.766 25.3008 145.547 29.832 145.547 34.6758C145.547 35.457 145.527 36.043 145.488 36.4336C145.371 38.4258 144.512 39.9492 142.91 41.0039C141.348 42.0195 139.648 42.5273 137.812 42.5273H137.578C132.305 42.332 129.59 35.4766 129.434 21.9609C129.434 21.6875 129.434 21.4922 129.434 21.375V20.9062C129.434 18.7969 129.551 16.7266 129.785 14.6953C130.059 12.6641 130.508 10.5352 131.133 8.30859C131.797 6.08203 132.832 4.26562 134.238 2.85938C135.645 1.41406 137.324 0.652344 139.277 0.574219H139.629C143.457 0.574219 145.664 3.77734 146.25 10.1836ZM182.578 14.5195C181.914 13.8555 181.113 13.5234 180.176 13.5234C179.238 13.5234 178.438 13.8555 177.773 14.5195C177.109 15.1836 176.777 16.0039 176.777 16.9805C176.777 17.918 177.109 18.7188 177.773 19.3828C178.438 20.0469 179.238 20.3789 180.176 20.3789C181.113 20.3789 181.914 20.0469 182.578 19.3828C183.281 18.7188 183.633 17.918 183.633 16.9805C183.633 16.0039 183.281 15.1836 182.578 14.5195ZM180.41 0.574219C185.332 0.574219 189.16 2.64453 191.895 6.78516C194.629 10.8867 196.113 15.9258 196.348 21.9023V23.8359C196.348 25.9062 196.211 27.8789 195.938 29.7539C195.703 31.5898 195.254 33.543 194.59 35.6133C193.926 37.6836 192.852 39.3438 191.367 40.5938C189.922 41.8438 188.125 42.4688 185.977 42.4688C184.492 42.4688 183.281 41.8828 182.344 40.7109C181.445 39.5391 180.957 38.0547 180.879 36.2578C180.801 35.75 180.762 35.0273 180.762 34.0898C180.762 31.707 181.211 29.6758 182.109 27.9961C181.523 28.4648 180.957 28.6992 180.41 28.6992C179.824 28.6992 179.199 28.4258 178.535 27.8789C179.551 28.8945 180.059 31.0625 180.059 34.3828C180.059 35.2031 180.039 35.8477 180 36.3164C179.922 37.8789 179.434 39.3047 178.535 40.5938C177.637 41.8438 176.543 42.4883 175.254 42.5273H175.195C173.086 42.5273 171.27 41.9023 169.746 40.6523C168.223 39.4023 167.09 37.7617 166.348 35.7305C165.645 33.6992 165.137 31.7266 164.824 29.8125C164.512 27.8594 164.355 25.8672 164.355 23.8359C164.355 23.0547 164.395 22.1562 164.473 21.1406C164.668 18.5234 165.078 16.082 165.703 13.8164C166.328 11.5117 167.227 9.34375 168.398 7.3125C169.57 5.24219 171.191 3.60156 173.262 2.39062C175.332 1.17969 177.715 0.574219 180.41 0.574219ZM219.258 12.7031C219.258 11.7266 218.926 10.9063 218.262 10.2422C217.598 9.57812 216.797 9.24609 215.859 9.24609C214.883 9.24609 214.062 9.57812 213.398 10.2422C212.734 10.9063 212.402 11.7266 212.402 12.7031C212.402 13.6406 212.734 14.4414 213.398 15.1055C214.062 15.7695 214.883 16.1016 215.859 16.1016C216.797 16.1016 217.598 15.7695 218.262 15.1055C218.926 14.4414 219.258 13.6406 219.258 12.7031ZM216.621 0.222656C219.668 0.222656 222.402 1.39453 224.824 3.73828C227.246 6.04297 228.457 8.95312 228.457 12.4688V12.7617C228.379 16.3164 227.48 19.2461 225.762 21.5508C224.043 23.8164 221.855 24.9492 219.199 24.9492C217.363 24.9492 215.41 24.3438 213.34 23.1328V24.0703C213.34 36.375 210.684 42.5273 205.371 42.5273C203.965 42.5273 202.754 42.0781 201.738 41.1797C200.723 40.2422 199.941 39.1289 199.395 37.8398C198.887 36.5117 198.477 34.832 198.164 32.8008C197.852 30.7305 197.656 28.9141 197.578 27.3516C197.539 25.75 197.52 23.875 197.52 21.7266V20.9648C197.52 19.207 197.637 17.332 197.871 15.3398C198.105 13.3477 198.496 11.1797 199.043 8.83594C199.59 6.49219 200.469 4.55859 201.68 3.03516C202.891 1.47266 204.316 0.652344 205.957 0.574219H206.426C208.262 0.574219 209.785 1.08203 210.996 2.09766C212.598 0.847656 214.473 0.222656 216.621 0.222656Z" fill="white"/>
</svg>
