<svg width="88" height="48" viewBox="0 0 88 48" fill="none" xmlns="http://www.w3.org/2000/svg">
<path d="M0.644531 20.6719C0.683594 19.2656 0.742188 17.918 0.820312 16.6289C0.9375 15.3398 1.21094 13.6797 1.64062 11.6484C2.07031 9.57812 2.61719 7.80078 3.28125 6.31641C3.94531 4.83203 4.92188 3.52344 6.21094 2.39062C7.53906 1.25781 9.08203 0.652344 10.8398 0.574219H11.7773C14.9023 0.574219 17.4609 1.17969 19.4531 2.39062C21.4844 3.5625 22.5 5.47656 22.5 8.13281C22.5 10.0859 21.8945 11.5703 20.6836 12.5859C19.5117 13.5625 18.0664 14.0508 16.3477 14.0508C14.7852 14.0508 13.3984 13.6992 12.1875 12.9961C12.6562 13.4258 12.8906 14.0703 12.8906 14.9297C12.8906 15.3984 12.8125 15.7891 12.6562 16.1016C14.2969 15.5547 15.5859 15.2812 16.5234 15.2812C19.5312 15.2812 21.0352 17.1758 21.0352 20.9648V21.3164C20.9961 22.9961 20.5078 24.2266 19.5703 25.0078C18.6328 25.75 17.5 26.1211 16.1719 26.1211C14.4141 26.1211 13.2227 25.7109 12.5977 24.8906C12.5586 26.4922 12.5 27.8203 12.4219 28.875C12.3828 29.9297 12.2852 31.2383 12.1289 32.8008C12.0117 34.3242 11.8164 35.5938 11.543 36.6094C11.3086 37.625 10.9766 38.6406 10.5469 39.6562C10.1562 40.6328 9.62891 41.375 8.96484 41.8828C8.33984 42.3516 7.61719 42.5859 6.79688 42.5859C2.65625 42.5859 0.585938 36.3555 0.585938 23.8945C0.585938 22.332 0.605469 21.2578 0.644531 20.6719ZM40.4297 14.5195C39.7656 13.8555 38.9648 13.5234 38.0273 13.5234C37.0898 13.5234 36.2891 13.8555 35.625 14.5195C34.9609 15.1836 34.6289 16.0039 34.6289 16.9805C34.6289 17.918 34.9609 18.7188 35.625 19.3828C36.2891 20.0469 37.0898 20.3789 38.0273 20.3789C38.9648 20.3789 39.7656 20.0469 40.4297 19.3828C41.1328 18.7188 41.4844 17.918 41.4844 16.9805C41.4844 16.0039 41.1328 15.1836 40.4297 14.5195ZM38.2617 0.574219C43.1836 0.574219 47.0117 2.64453 49.7461 6.78516C52.4805 10.8867 53.9648 15.9258 54.1992 21.9023V23.8359C54.1992 25.9062 54.0625 27.8789 53.7891 29.7539C53.5547 31.5898 53.1055 33.543 52.4414 35.6133C51.7773 37.6836 50.7031 39.3438 49.2188 40.5938C47.7734 41.8438 45.9766 42.4688 43.8281 42.4688C42.3438 42.4688 41.1328 41.8828 40.1953 40.7109C39.2969 39.5391 38.8086 38.0547 38.7305 36.2578C38.6523 35.75 38.6133 35.0273 38.6133 34.0898C38.6133 31.707 39.0625 29.6758 39.9609 27.9961C39.375 28.4648 38.8086 28.6992 38.2617 28.6992C37.6758 28.6992 37.0508 28.4258 36.3867 27.8789C37.4023 28.8945 37.9102 31.0625 37.9102 34.3828C37.9102 35.2031 37.8906 35.8477 37.8516 36.3164C37.7734 37.8789 37.2852 39.3047 36.3867 40.5938C35.4883 41.8438 34.3945 42.4883 33.1055 42.5273H33.0469C30.9375 42.5273 29.1211 41.9023 27.5977 40.6523C26.0742 39.4023 24.9414 37.7617 24.1992 35.7305C23.4961 33.6992 22.9883 31.7266 22.6758 29.8125C22.3633 27.8594 22.207 25.8672 22.207 23.8359C22.207 23.0547 22.2461 22.1562 22.3242 21.1406C22.5195 18.5234 22.9297 16.082 23.5547 13.8164C24.1797 11.5117 25.0781 9.34375 26.25 7.3125C27.4219 5.24219 29.043 3.60156 31.1133 2.39062C33.1836 1.17969 35.5664 0.574219 38.2617 0.574219ZM71.7188 0.164062C74.4922 0.203125 76.875 0.769531 78.8672 1.86328C80.8984 2.91797 82.4805 4.42187 83.6133 6.375C84.7852 8.32813 85.6445 10.5156 86.1914 12.9375C86.7383 15.3594 87.0117 18.0742 87.0117 21.082V21.4922C86.9336 26.9609 86.0938 31.5312 84.4922 35.2031C85.7812 37.4297 86.4258 39.5781 86.4258 41.6484C86.4258 43.3672 85.9766 44.7734 85.0781 45.8672C84.1797 46.9609 83.0664 47.5078 81.7383 47.5078C79.3164 47.5078 77.2461 45.8086 75.5273 42.4102C72.9492 42.8398 71.6016 43.0547 71.4844 43.0547H71.4258C70.4102 43.0547 69.5312 43.0156 68.7891 42.9375C68.0859 42.8984 67.1289 42.7227 65.918 42.4102C64.7461 42.0977 63.7305 41.6875 62.8711 41.1797C62.0508 40.6328 61.1328 39.8516 60.1172 38.8359C59.1406 37.7812 58.3398 36.5312 57.7148 35.0859C57.0898 33.6406 56.543 31.7852 56.0742 29.5195C55.6445 27.2539 55.4102 24.7148 55.3711 21.9023V21.3164C55.3711 17.6055 55.8594 14.3438 56.8359 11.5312C57.8125 8.67969 59.1016 6.47266 60.7031 4.91016C62.3047 3.30859 64.0234 2.11719 65.8594 1.33594C67.6953 0.554687 69.6094 0.164062 71.6016 0.164062H71.7188ZM72.0703 13.4648C70.6641 13.5039 69.4922 14.5 68.5547 16.4531C67.6562 18.3672 67.207 20.3203 67.207 22.3125C67.207 25.9453 68.1055 28.6016 69.9023 30.2812C69.043 28.9531 68.6133 27.5859 68.6133 26.1797C68.6133 25.1641 68.8281 24.2656 69.2578 23.4844C69.6875 22.7031 70.1758 22.1367 70.7227 21.7852C71.3086 21.4336 71.9922 21.2578 72.7734 21.2578C73.6719 21.2578 74.5117 21.4531 75.293 21.8438C76.1133 22.2344 76.6602 22.7422 76.9336 23.3672C76.9336 23.3281 76.9141 23.1523 76.875 22.8398C76.875 22.5273 76.875 22.3516 76.875 22.3125C76.875 19.8906 76.4062 17.8203 75.4688 16.1016C74.5703 14.3438 73.457 13.4648 72.1289 13.4648H72.0703Z" fill="white"/>
</svg>
