<svg width="283" height="142" viewBox="0 0 283 142" fill="none" xmlns="http://www.w3.org/2000/svg">
<path d="M146.376 1.5347C140.953 2.97148 136.85 5.414 132.228 10.1554C127.324 15.0883 125.249 18.776 123.315 25.9599C122.702 28.3067 122.136 29.9829 122.136 29.5998C122.089 29.2166 121.712 29.4561 121.099 30.2224C120.58 30.8929 119.825 31.4676 119.448 31.4676C119.071 31.4676 118.835 31.6591 118.977 31.8986C119.118 32.0902 117.137 32.4254 114.638 32.5691C112.091 32.7607 108.319 33.3354 106.243 33.9101C104.216 34.4848 102.188 34.9158 101.81 34.8679C101.433 34.8201 100.443 34.7243 99.6411 34.6764C98.8394 34.5806 97.0474 33.6227 95.6326 32.5212C88.0871 26.7262 79.7398 25.7205 71.6755 29.6477C67.8084 31.5155 63.0453 36.2089 60.6402 40.5672C59.697 42.2913 58.8953 43.5365 58.8953 43.3449C58.8953 43.1534 57.9993 43.3928 56.9617 43.8718C55.3112 44.638 54.2265 44.7338 50.3594 44.5423C44.9361 44.207 41.069 44.8775 36.8246 46.8411C30.2223 49.8583 24.4216 56.3717 22.5353 62.933C22.2523 64.0345 21.8279 64.8487 21.6392 64.7529C21.4506 64.6571 20.7904 65.0882 20.2244 65.7108C19.6114 66.3813 19.3284 66.9081 19.5642 66.956C19.8 66.956 18.3852 67.4349 16.4045 68.0575C14.4238 68.6322 11.7357 69.8295 10.3681 70.6916C5.55782 73.8525 1.69073 79.6475 0.464584 85.4904C-1.89339 96.9846 4.94474 108.623 15.9801 111.975C17.1591 112.358 18.4795 112.933 18.9511 113.364C19.4227 113.747 19.8472 113.987 19.9415 113.843C20.0358 113.699 21.1205 114.992 22.3938 116.669C34.0422 132.281 67.4312 138.939 95.8212 131.324C98.9809 130.509 100.773 130.366 99.2167 131.132C98.3678 131.515 98.415 131.563 99.4525 131.372C100.113 131.228 102.612 131.755 105.064 132.569C122.985 138.364 144.914 137.214 162.316 129.456C163.354 129.025 164.014 128.881 163.825 129.121C163.637 129.456 164.297 129.647 165.665 129.647C167.409 129.647 168.447 130.078 171.229 131.898C181.416 138.555 192.923 141.764 206.269 141.764C224.142 141.764 239.045 135.873 250.505 124.188C252.863 121.793 254.938 119.829 255.079 119.829C255.598 119.782 257.154 118.68 256.73 118.632C256.494 118.584 258.144 118.153 260.455 117.674C266.539 116.381 270.17 114.37 274.462 110.059C277.291 107.186 278.47 105.557 279.979 102.349C282.432 97.0804 283.045 94.1111 282.998 88.2203C282.95 82.569 281.63 77.5402 278.8 72.751C277.197 69.9732 273 65.4713 270.17 63.4119C269.51 62.933 269.227 62.6935 269.557 62.8372C269.934 63.0288 269.934 62.7893 269.557 61.9273C269.227 61.3047 268.897 60.8257 268.708 60.9694C268.567 61.0652 268.189 59.7242 267.906 58.0001C266.492 49.4752 260.408 42.0997 251.07 37.6936C245.789 35.1553 240.365 33.8622 233.48 33.527C230.32 33.3833 227.821 33.1438 227.962 33.0001C228.104 32.8565 227.538 32.3775 226.783 31.8986C225.982 31.3718 225.369 30.7492 225.369 30.5097C225.369 30.2224 225.18 30.0787 224.991 30.2224C224.755 30.366 224.284 29.2645 224.001 27.7319C221.643 16.8603 212.494 9.14963 200.044 7.47339C194.668 6.75499 189.244 7.47339 183.962 9.62856C181.84 10.4906 180.237 11.0174 180.378 10.778C180.52 10.5864 179.812 10.3469 178.822 10.299C177.832 10.299 176.794 10.2033 176.511 10.2033C176.228 10.1554 174.955 9.24541 173.682 8.09599C171.041 5.79713 167.174 3.59407 163.259 2.20518C159.581 0.864197 150.432 0.528961 146.376 1.5347Z" fill="white"/>
</svg>
