<svg width="493" height="276" viewBox="0 0 493 276" fill="none" xmlns="http://www.w3.org/2000/svg">
<path d="M254.995 1.14621C245.547 3.96231 238.4 8.74976 230.348 18.043C221.804 27.7117 218.19 34.9397 214.821 49.0203C213.753 53.62 212.767 56.9055 212.767 56.1545C212.685 55.4035 212.028 55.8729 210.96 57.3748C210.056 58.689 208.742 59.8155 208.085 59.8155C207.427 59.8155 207.017 60.1909 207.263 60.6603C207.51 61.0358 204.059 61.6929 199.705 61.9745C195.269 62.35 188.696 63.4764 185.081 64.6029C181.549 65.7293 178.016 66.5742 177.359 66.4803C176.702 66.3864 174.976 66.1987 173.58 66.1048C172.183 65.9171 169.061 64.0397 166.597 61.8806C153.452 50.5222 138.911 48.551 124.862 56.2484C118.126 59.9093 109.828 69.1087 105.638 77.6509C103.995 81.0303 102.598 83.4709 102.598 83.0954C102.598 82.72 101.038 83.1893 99.2302 84.128C96.3548 85.6299 94.4652 85.8177 87.7286 85.4422C78.2808 84.7851 71.5442 86.0993 64.1503 89.948C52.6487 95.8619 42.5437 108.628 39.2575 121.489C38.7646 123.648 38.0252 125.243 37.6966 125.056C37.368 124.868 36.2178 125.713 35.232 126.933C34.164 128.247 33.671 129.28 34.0818 129.374C34.4926 129.374 32.028 130.312 28.5775 131.533C25.127 132.659 20.4442 135.006 18.0617 136.696C9.68199 142.891 2.94534 154.25 0.809328 165.702C-3.29839 188.231 8.61399 211.041 27.8381 217.612C29.8919 218.363 32.1923 219.49 33.0138 220.335C33.8354 221.086 34.5747 221.555 34.7391 221.273C34.9034 220.992 36.7929 223.526 39.0111 226.812C59.3032 257.414 117.468 270.462 166.925 255.536C172.43 253.94 175.552 253.659 172.84 255.161C171.362 255.912 171.444 256.006 173.251 255.63C174.401 255.348 178.756 256.381 183.028 257.977C214.246 269.335 252.448 267.082 282.763 251.875C284.57 251.03 285.72 250.749 285.392 251.218C285.063 251.875 286.213 252.251 288.596 252.251C291.636 252.251 293.443 253.096 298.29 256.663C316.035 269.711 336.081 276 359.331 276C390.467 276 416.428 264.454 436.391 241.549C440.499 236.856 444.114 233.007 444.36 233.007C445.264 232.913 447.975 230.754 447.236 230.66C446.825 230.567 449.7 229.722 453.726 228.783C464.324 226.248 470.65 222.306 478.126 213.858C483.055 208.225 485.109 205.034 487.738 198.744C492.01 188.419 493.078 182.599 492.996 171.052C492.914 159.976 490.613 150.119 485.684 140.732C482.891 135.288 475.579 126.464 470.65 122.427C469.5 121.489 469.007 121.019 469.582 121.301C470.239 121.676 470.239 121.207 469.582 119.517C469.007 118.297 468.432 117.358 468.103 117.64C467.856 117.828 467.199 115.199 466.706 111.82C464.242 95.1109 453.644 80.6548 437.377 72.0187C428.176 67.0435 418.728 64.509 406.734 63.8519C401.229 63.5703 396.875 63.101 397.122 62.8193C397.368 62.5377 396.382 61.599 395.068 60.6603C393.671 59.6277 392.603 58.4074 392.603 57.938C392.603 57.3748 392.275 57.0932 391.946 57.3748C391.535 57.6564 390.714 55.4974 390.221 52.4935C386.113 31.1849 370.175 16.0717 348.486 12.7862C339.121 11.3781 329.673 12.7862 320.472 17.0104C316.775 18.7 313.982 19.7326 314.228 19.2633C314.474 18.8878 313.242 18.4184 311.517 18.3246C309.792 18.3246 307.984 18.1368 307.491 18.1368C306.998 18.0429 304.78 16.2594 302.562 14.0065C297.961 9.5007 291.225 5.18262 284.406 2.46039C277.998 -0.167999 262.06 -0.825104 254.995 1.14621Z" fill="white"/>
</svg>
