<svg width="185" height="93" viewBox="0 0 185 93" fill="none" xmlns="http://www.w3.org/2000/svg">
<path d="M87.2802 0.847809C95.3613 2.1324 102.332 8.64934 104.306 16.8268C105.17 20.3673 106.681 21.4952 110.876 21.7459C112.48 21.8399 114.639 22.1532 115.656 22.4665C118.833 23.4064 120.345 23.1558 122.936 21.2759C126.236 18.8634 127.716 18.3934 131.849 18.3621C135.304 18.3621 135.458 18.3934 137.802 19.5213C140.732 20.9313 143.447 23.4691 145.143 26.3516C145.791 27.4795 146.346 28.2628 146.346 28.1375C146.346 27.9808 146.716 28.1688 147.148 28.5135C147.611 28.8895 148.166 29.1714 148.413 29.1714C148.659 29.1714 148.752 29.3281 148.628 29.5161C148.474 29.7981 148.69 29.8294 149.307 29.7041C158.437 27.6989 167.505 32.7432 170.25 41.2967C170.558 42.2053 170.898 42.8946 171.021 42.8006C171.175 42.7066 171.607 43.0513 172.008 43.5526C172.471 44.1165 173.211 44.5238 173.982 44.6492C178.084 45.4325 182.618 49.5682 184.13 53.9233C185.456 57.777 185.271 62.0068 183.544 65.7039C181.693 69.6517 178.516 72.4402 174.599 73.5054C173.489 73.8187 172.656 74.1947 172.748 74.32C172.903 74.5707 172.44 74.7274 172.131 74.508C172.07 74.4767 171.391 75.3227 170.62 76.3566C163.619 86.038 143.632 90.7377 125.773 86.9466C120.622 85.85 119.851 85.85 116.705 86.884C110.845 88.7638 108.254 89.1398 100.543 89.1398C91.8142 89.1712 88.1747 88.5445 81.1114 85.8187C77.6261 84.4714 76.0531 84.5341 73.8632 86.038C69.8226 88.7952 64.7334 90.957 59.1198 92.2416C54.8325 93.2129 45.4869 93.2129 41.1379 92.2416C32.2549 90.2364 25.3459 86.2887 19.8865 80.1164C18.9921 79.0824 17.9434 78.2051 17.6041 78.2051C17.2648 78.1738 16.9255 77.9858 16.8638 77.7978C16.8022 77.5785 16.4012 77.4219 15.9694 77.4219C15.5376 77.4219 14.3346 77.2025 13.2859 76.9206C7.45648 75.3853 2.49063 70.2783 0.578323 63.7927C-0.19278 61.1922 -0.19278 55.4272 0.578323 52.858C1.75038 48.8476 4.09451 45.2758 7.02467 42.9259C7.88829 42.2053 8.62854 41.5474 8.62854 41.422C8.65939 41.328 8.78276 40.8894 8.90614 40.4821C9.06036 39.9808 9.24542 39.8555 9.39964 40.1061C9.52301 40.3254 9.70808 39.6361 9.80061 38.6022C9.92398 37.5369 10.4175 35.7824 10.9418 34.5918C12.885 30.268 15.9077 27.3542 20.9661 24.9417C24.4823 23.2498 26.7955 22.6545 31.4529 22.2472C35.6169 21.8712 36.6039 21.5892 37.4675 20.4613C37.8068 20.054 38.0844 19.8033 38.1152 19.96C38.1152 20.1166 38.3928 19.208 38.7012 17.9548C39.5032 14.853 40.6444 12.8164 42.9268 10.5292C48.4787 4.85823 57.7935 3.44832 65.9363 7.05144C66.6149 7.36475 67.0775 7.45874 66.985 7.33342C66.8925 7.20809 67.4785 7.08276 68.2496 7.08276C69.4525 7.08276 69.8843 6.92611 70.8713 6.04883C74.5726 2.79036 78.9215 1.00446 83.5789 0.816475C85.0903 0.753815 86.7559 0.785149 87.2802 0.847809Z" fill="white"/>
</svg>
