<svg width="414" height="239" viewBox="0 0 414 239" fill="none" xmlns="http://www.w3.org/2000/svg">
<path d="M199.867 0.992538C207.8 3.43114 213.802 7.57677 220.563 15.6242C227.738 23.9967 230.774 30.2558 233.602 42.4488C234.499 46.4318 235.327 49.2768 235.327 48.6266C235.396 47.9763 235.948 48.3827 236.845 49.6833C237.604 50.8213 238.708 51.7967 239.26 51.7967C239.811 51.7967 240.156 52.1219 239.949 52.5283C239.742 52.8535 242.64 53.4225 246.297 53.6663C250.022 53.9915 255.541 54.9669 258.577 55.9423C261.543 56.9178 264.51 57.6494 265.062 57.5681C265.614 57.4868 267.062 57.3242 268.235 57.2429C269.408 57.0804 272.03 55.4546 274.099 53.585C285.138 43.7493 297.349 42.0423 309.146 48.7078C314.803 51.878 321.771 59.8441 325.29 67.2412C326.669 70.1675 327.842 72.281 327.842 71.9558C327.842 71.6307 329.153 72.0371 330.671 72.85C333.085 74.1506 334.672 74.3131 340.329 73.988C348.263 73.419 353.92 74.557 360.129 77.8898C369.788 83.0108 378.274 94.0658 381.033 105.202C381.447 107.072 382.068 108.454 382.344 108.291C382.62 108.128 383.586 108.86 384.414 109.917C385.311 111.055 385.725 111.949 385.38 112.03C385.035 112.03 387.104 112.843 390.002 113.9C392.899 114.875 396.832 116.907 398.833 118.371C405.869 123.735 411.527 133.571 413.32 143.488C416.77 162.997 406.766 182.75 390.623 188.44C388.898 189.09 386.966 190.065 386.276 190.797C385.587 191.447 384.966 191.854 384.828 191.61C384.69 191.366 383.103 193.561 381.24 196.406C364.2 222.905 315.355 234.204 273.823 221.279C269.201 219.898 266.579 219.654 268.856 220.954C270.098 221.605 270.029 221.686 268.511 221.361C267.545 221.117 263.889 222.011 260.301 223.393C234.085 233.229 202.005 231.278 176.548 218.109C175.03 217.378 174.064 217.134 174.34 217.54C174.616 218.109 173.65 218.434 171.65 218.434C169.097 218.434 167.579 219.166 163.509 222.255C148.607 233.554 131.774 239 112.25 239C86.1027 239 64.3019 229.002 47.5375 209.168C44.088 205.103 41.0525 201.771 40.8455 201.771C40.0866 201.689 37.8099 199.82 38.4308 199.739C38.7758 199.657 36.3611 198.926 32.9807 198.113C24.081 195.918 18.7688 192.504 12.4908 185.188C8.35138 180.311 6.62662 177.547 4.41895 172.101C0.831512 163.16 -0.0653687 158.12 0.00360107 148.121C0.0726013 138.53 2.0043 129.995 6.14371 121.866C8.48935 117.151 14.6295 109.51 18.7688 106.015C19.7347 105.202 20.1486 104.796 19.6657 105.04C19.1138 105.365 19.1138 104.958 19.6657 103.495C20.1486 102.438 20.6315 101.625 20.9075 101.869C21.1145 102.032 21.6664 99.7559 22.0803 96.8296C24.15 82.3605 33.0497 69.8424 46.7096 62.364C54.4364 58.0558 62.3702 55.8611 72.4427 55.2921C77.065 55.0482 80.7215 54.6418 80.5145 54.3979C80.3075 54.154 81.1354 53.3412 82.2392 52.5283C83.412 51.6342 84.3089 50.5774 84.3089 50.171C84.3089 49.6833 84.5849 49.4394 84.8608 49.6833C85.2058 49.9271 85.8957 48.0575 86.3096 45.4564C89.7591 27.0043 103.143 13.9171 121.356 11.0721C129.221 9.8528 137.155 11.0721 144.882 14.73C147.986 16.1932 150.332 17.0873 150.125 16.6809C149.918 16.3557 150.953 15.9493 152.402 15.868C153.85 15.868 155.368 15.7054 155.782 15.7054C156.196 15.6241 158.059 14.0797 159.922 12.1288C163.785 8.22705 169.442 4.48785 175.168 2.13054C180.549 -0.145477 193.933 -0.714478 199.867 0.992538Z" fill="white"/>
</svg>
