<svg width="319" height="159" viewBox="0 0 319 159" fill="none" xmlns="http://www.w3.org/2000/svg">
<path d="M169.034 0.487473C164.726 1.02434 161.216 2.20546 156.802 4.62137C147.974 9.45322 141.965 17.4526 138.987 28.2974C138.295 30.8744 137.71 32.8071 137.71 32.5924C137.657 32.3776 137.019 32.8071 136.274 33.505C135.477 34.2567 134.466 34.8472 133.988 34.8472C133.243 34.8472 133.243 34.9546 133.934 35.3841C134.466 35.7599 133.562 35.921 130.903 35.921C126.968 35.921 121.171 36.8873 116.81 38.2295C115.374 38.659 114.417 38.8201 114.577 38.4979C114.789 38.1758 114.098 38.0148 112.875 38.1221C111.12 38.2295 110.269 37.8537 107.344 35.7062C100.324 30.4449 93.3044 28.888 85.806 30.8207C78.8925 32.646 72.2981 37.9611 68.5223 44.672C67.6182 46.3363 66.6077 47.6247 66.395 47.4637C66.1291 47.3026 65.81 47.41 65.5973 47.7321C64.906 48.8059 61.6088 49.987 60.1729 49.6112C59.3752 49.4501 56.5566 49.2891 53.8976 49.2891C45.3355 49.2891 37.0925 52.9398 31.6149 59.0601C29.275 61.6908 24.9142 69.5828 24.9142 71.1934C24.9142 71.6229 24.7546 71.8913 24.5419 71.784C24.276 71.6766 23.4783 72.2671 22.6806 73.0724C21.8829 73.8777 21.5638 74.5757 21.8829 74.6294C22.2551 74.6294 21.1383 75.0052 19.4897 75.4347C3.42919 79.3538 -4.60108 96.9632 2.73785 112.157C5.82232 118.438 12.8953 124.129 19.1707 125.31C20.2874 125.525 21.0852 125.901 20.9256 126.115C20.6597 126.491 21.4042 126.974 22.4147 127.082C22.6806 127.135 23.9037 128.531 25.2332 130.249C35.178 143.295 58.7902 151.187 84.7423 150.113C92.7726 149.738 98.8884 148.932 106.28 147.107C111.173 145.926 112.077 145.98 118.778 148.127C127.606 150.865 135.051 151.939 145.634 151.992C158.61 151.992 168.449 150.274 178.872 146.141C181.531 145.121 183.924 144.262 184.19 144.262C187.966 144.53 189.561 145.013 192.008 146.677C198.602 151.08 207.536 154.838 216.045 156.824C222.267 158.274 236.148 158.757 243.114 157.791C258.856 155.643 273.108 148.503 283.372 137.604C285.552 135.296 287.467 133.363 287.626 133.363C288.796 133.148 290.285 132.397 290.285 131.967C290.285 131.699 291.083 131.484 292.094 131.484C294.593 131.484 300.124 129.659 303.315 127.78C309.59 124.129 314.695 117.794 317.301 110.439C319.269 104.802 319.588 95.7821 317.939 89.8228C315.972 82.414 312.143 76.6695 306.133 71.8376C304.75 70.7639 303.74 69.7438 303.9 69.5828C304.059 69.4217 303.74 68.6164 303.155 67.7574C302.57 66.9521 301.932 65.0731 301.772 63.5698C301.081 57.8253 296.454 50.6312 290.658 46.2826C282.946 40.4844 274.278 37.5853 263.536 37.1558C259.813 36.9947 256.888 36.7263 257.047 36.5652C257.207 36.4041 256.569 35.8673 255.718 35.3304C254.814 34.7398 254.123 34.0419 254.123 33.7735C254.123 33.4514 253.91 33.2903 253.644 33.505C253.378 33.6661 252.846 32.3776 252.527 30.7133C250.453 20.4591 241.891 11.8154 230.723 8.80898C223.225 6.76886 213.758 7.4131 207.111 10.3659C204.665 11.4933 203.92 11.547 201.208 11.1175C198.815 10.7417 197.645 10.2048 195.89 8.6479C188.764 2.4202 178.712 -0.639969 169.034 0.487473Z" fill="white"/>
</svg>
