<svg width="129" height="43" viewBox="0 0 129 43" fill="none" xmlns="http://www.w3.org/2000/svg">
<path d="M15.9375 0.574219C25.8203 0.691406 30.7617 3.52344 30.7617 9.07031C30.7617 11.2578 29.9609 13.0547 28.3594 14.4609C26.7969 15.8672 25.0391 16.5703 23.0859 16.5703C22.3828 16.5703 21.6211 16.4336 20.8008 16.1602C21.2695 17.332 21.7578 19.5391 22.2656 22.7812C22.7734 26.0234 23.0273 28.3867 23.0273 29.8711V30.2227C22.9492 31.6289 22.793 32.957 22.5586 34.207C22.3242 35.457 21.9336 36.7461 21.3867 38.0742C20.8789 39.4023 20.0977 40.4766 19.043 41.2969C18.0273 42.0781 16.8164 42.4688 15.4102 42.4688C13.5742 42.4688 12.0508 41.6875 10.8398 40.125C9.66797 38.5234 8.88672 36.8438 8.49609 35.0859C8.14453 33.3281 7.96875 31.5703 7.96875 29.8125C7.96875 25.1641 8.71094 20.6523 10.1953 16.2773C9.49219 16.5117 8.65234 16.6289 7.67578 16.6289C5.68359 16.6289 3.90625 16.0234 2.34375 14.8125C0.78125 13.6016 0 11.7852 0 9.36328C0 7.44922 0.546875 5.86719 1.64062 4.61719C2.73438 3.32812 4.17969 2.42969 5.97656 1.92188C7.8125 1.375 9.43359 1.02344 10.8398 0.867188C12.2461 0.671875 13.7305 0.574219 15.293 0.574219H15.9375ZM30.4102 22.7227C30.4102 20.418 30.4883 18.3672 30.6445 16.5703C30.8398 14.7734 31.2305 12.8203 31.8164 10.7109C32.4414 8.60156 33.2422 6.86328 34.2188 5.49609C35.2344 4.08984 36.6406 2.91797 38.4375 1.98047C40.2734 1.04297 42.4414 0.574219 44.9414 0.574219H45C55.8203 0.691406 61.4062 3.40625 61.7578 8.71875V9.12891C61.7578 13.1914 59.1992 15.2227 54.082 15.2227C51.582 15.2227 48.8867 14.7734 45.9961 13.875C46.4258 14.4219 46.6406 14.8906 46.6406 15.2812C46.6406 15.5938 46.4844 16.0625 46.1719 16.6875C48.0078 16.0625 49.6484 15.75 51.0938 15.75C54.4922 15.75 56.1914 17.625 56.1914 21.375C56.1914 25.9453 54.4141 28.2305 50.8594 28.2305C50.1953 28.2305 48.7305 28.0352 46.4648 27.6445C46.543 27.8008 46.582 28.0156 46.582 28.2891C46.582 28.7969 46.3281 29.3438 45.8203 29.9297C48.75 28.9922 51.4062 28.5234 53.7891 28.5234C58.3594 28.5234 60.8984 30.2617 61.4062 33.7383C61.4453 33.8945 61.4648 34.1484 61.4648 34.5C61.4648 35.9453 60.8203 37.2148 59.5312 38.3086C58.2422 39.4023 56.5625 40.2422 54.4922 40.8281C52.4609 41.375 50.3906 41.7852 48.2812 42.0586C46.2109 42.332 44.1406 42.4688 42.0703 42.4688C39.7266 42.4688 37.7539 41.9805 36.1523 41.0039C34.5898 40.0273 33.3984 38.6016 32.5781 36.7266C31.7578 34.8516 31.1914 32.8398 30.8789 30.6914C30.5664 28.543 30.4102 26.0039 30.4102 23.0742V22.7227ZM79.6875 14.5195C79.0234 13.8555 78.2227 13.5234 77.2852 13.5234C76.3477 13.5234 75.5469 13.8555 74.8828 14.5195C74.2188 15.1836 73.8867 16.0039 73.8867 16.9805C73.8867 17.918 74.2188 18.7188 74.8828 19.3828C75.5469 20.0469 76.3477 20.3789 77.2852 20.3789C78.2227 20.3789 79.0234 20.0469 79.6875 19.3828C80.3906 18.7188 80.7422 17.918 80.7422 16.9805C80.7422 16.0039 80.3906 15.1836 79.6875 14.5195ZM77.5195 0.574219C82.4414 0.574219 86.2695 2.64453 89.0039 6.78516C91.7383 10.8867 93.2227 15.9258 93.457 21.9023V23.8359C93.457 25.9062 93.3203 27.8789 93.0469 29.7539C92.8125 31.5898 92.3633 33.543 91.6992 35.6133C91.0352 37.6836 89.9609 39.3438 88.4766 40.5938C87.0312 41.8438 85.2344 42.4688 83.0859 42.4688C81.6016 42.4688 80.3906 41.8828 79.4531 40.7109C78.5547 39.5391 78.0664 38.0547 77.9883 36.2578C77.9102 35.75 77.8711 35.0273 77.8711 34.0898C77.8711 31.707 78.3203 29.6758 79.2188 27.9961C78.6328 28.4648 78.0664 28.6992 77.5195 28.6992C76.9336 28.6992 76.3086 28.4258 75.6445 27.8789C76.6602 28.8945 77.168 31.0625 77.168 34.3828C77.168 35.2031 77.1484 35.8477 77.1094 36.3164C77.0312 37.8789 76.543 39.3047 75.6445 40.5938C74.7461 41.8438 73.6523 42.4883 72.3633 42.5273H72.3047C70.1953 42.5273 68.3789 41.9023 66.8555 40.6523C65.332 39.4023 64.1992 37.7617 63.457 35.7305C62.7539 33.6992 62.2461 31.7266 61.9336 29.8125C61.6211 27.8594 61.4648 25.8672 61.4648 23.8359C61.4648 23.0547 61.5039 22.1562 61.582 21.1406C61.7773 18.5234 62.1875 16.082 62.8125 13.8164C63.4375 11.5117 64.3359 9.34375 65.5078 7.3125C66.6797 5.24219 68.3008 3.60156 70.3711 2.39062C72.4414 1.17969 74.8242 0.574219 77.5195 0.574219ZM111.445 10.1836C111.875 7.09766 112.539 4.73438 113.438 3.09375C114.336 1.41406 115.781 0.574219 117.773 0.574219C119.258 0.574219 120.566 0.808594 121.699 1.27734C122.832 1.74609 123.75 2.46875 124.453 3.44531C125.195 4.42187 125.801 5.45703 126.27 6.55078C126.777 7.64453 127.168 9.03125 127.441 10.7109C127.715 12.3906 127.91 13.9336 128.027 15.3398C128.184 16.7461 128.301 18.4844 128.379 20.5547C128.379 20.75 128.379 21.082 128.379 21.5508C128.418 21.9805 128.438 22.3125 128.438 22.5469C128.438 24.6562 128.281 26.7266 127.969 28.7578C127.695 30.75 127.188 32.8594 126.445 35.0859C125.742 37.2734 124.609 39.0508 123.047 40.418C121.484 41.7852 119.59 42.4688 117.363 42.4688C115.801 42.4688 114.531 41.8828 113.555 40.7109C112.578 39.5391 112.051 38.0547 111.973 36.2578V35.2031C111.973 30.7109 112.852 26.0234 114.609 21.1406C113.281 23.3672 112.227 24.4805 111.445 24.4805C110.977 24.4805 110.508 24.2266 110.039 23.7188C109.609 23.1719 109.062 22.293 108.398 21.082C109.961 25.3008 110.742 29.832 110.742 34.6758C110.742 35.457 110.723 36.043 110.684 36.4336C110.566 38.4258 109.707 39.9492 108.105 41.0039C106.543 42.0195 104.844 42.5273 103.008 42.5273H102.773C97.5 42.332 94.7852 35.4766 94.6289 21.9609C94.6289 21.6875 94.6289 21.4922 94.6289 21.375V20.9062C94.6289 18.7969 94.7461 16.7266 94.9805 14.6953C95.2539 12.6641 95.7031 10.5352 96.3281 8.30859C96.9922 6.08203 98.0273 4.26562 99.4336 2.85938C100.84 1.41406 102.52 0.652344 104.473 0.574219H104.824C108.652 0.574219 110.859 3.77734 111.445 10.1836Z" fill="white"/>
</svg>
